Simulation
nRows=36
nColumns=15
endheader
time  TH_x TH_y TH_z SC_y  SC_z  SC_x  AC_y  AC_z  AC_x  GH_y  GH_z  GH_yy  EL_x  PS_y
8.6175  0.000000  0.000000  0.000000  -35.48694338488343  2.6188266154416073  -7.471116851597244  41.46414982519021  13.633600133597392  4.513944611891377  116.33874397650081  4.980661876950355  -101.03283459258071  20.580367464858025  120.000000
8.67495  0.000000  0.000000  0.000000  -35.08936329536849  2.561247488090759  -7.910140216712566  40.93368336208166  13.561136446564891  4.292405874547967  106.47043235723288  5.431989028633426  -91.20221884406568  20.511973386531412  120.000000
8.7324  0.000000  0.000000  0.000000  -34.65134901233675  2.44479113609252  -8.476408986346511  40.44664239274427  13.553403308633138  4.144295330910051  96.69562733080558  6.447577938916474  -81.31740740413912  20.61575741406351  120.000000
8.78985  0.000000  0.000000  0.000000  -34.21466712329974  2.274035068450776  -9.141977675971514  40.02051751812304  13.601817436674889  4.098593692142612  88.92959606254634  8.125843093875353  -73.34288957697723  20.873829473531337  120.000000
8.8473  0.000000  0.000000  0.000000  -33.81880828951833  2.074519113144679  -9.886335561384858  39.670193641306184  13.702784714033383  4.17606933906019  83.61815014864283  10.490319104707467  -67.81494285492768  21.226530539883704  120.000000
8.90475  0.000000  0.000000  0.000000  -33.493757625186866  1.8806423973118302  -10.694423790557934  39.399786115670764  13.853169380971575  4.396465610907491  80.27535695603889  13.507746213494707  -64.34983954898999  21.60015957469862  120.000000
8.9622  0.000000  0.000000  0.000000  -33.253376670976884  1.7280706650276743  -11.551938499696346  39.20686139196805  14.049859072527239  4.778013949464411  78.2378330708956  17.099368884394863  -62.37001317626325  21.932141002709752  120.000000
9.01965  0.000000  0.000000  0.000000  -33.09718805884972  1.6548183995361132  -12.440448378569924  39.09921130490312  14.29436497426427  5.326154510461474  76.9713895597961  21.155670884233622  -61.39435240082558  22.185231519730394  120.000000
9.0771  0.000000  0.000000  0.000000  -33.02472943997976  1.693627783736342  -13.331083518641845  39.09752668485137  14.593650180480772  6.028484121383327  76.1094210555363  25.556333185750404  -61.07129424254673  22.346288825808255  120.000000
9.13455  0.000000  0.000000  0.000000  -33.044353659105155  1.8568779576822423  -14.179501481336038  39.23043021189461  14.950139071565017  6.863184806416295  75.43830116424125  30.191686002819523  -61.159301275608584  22.417164580259715  120.000000
9.192  0.000000  0.000000  0.000000  -33.16721123993938  2.1364632228605966  -14.926922134239557  39.53250781289398  15.356527082806126  7.80297975434487  74.85479923910104  34.97561725880625  -61.48683594355284  22.403280716339495  120.000000
9.24945  0.000000  0.000000  0.000000  -33.40675431942503  2.5105377223470278  -15.504147402230743  40.02612480792699  15.807616523339876  8.805253767541473  74.30065193906917  39.83760418422291  -61.90485235613416  22.30316063110828  120.000000
9.3069  0.000000  0.000000  0.000000  -33.770964184196885  2.9556417041755965  -15.837967918888497  40.710288746048526  16.294570137750526  9.812810098114383  73.74662696759628  44.712508522827584  -62.28264272090458  22.106044024978377  120.000000
9.36435  0.000000  0.000000  0.000000  -34.248982447586215  3.43983608658622  -15.860086330129905  41.56507270838089  16.79025260944398  10.764117869846457  73.18945757895317  49.54188907354258  -62.51593221623607  21.800456578778444  120.000000
9.421800000000001  0.000000  0.000000  0.000000  -34.811384741539904  3.919917964332012  -15.520477924517381  42.55891468269746  17.246442250877035  11.59769142995217  72.62975629247202  54.28045579943647  -62.52709716496681  21.387407206051858  120.000000
9.47925  0.000000  0.000000  0.000000  -35.41954844580974  4.3544746523417865  -14.799157704784998  43.65846105699884  17.59920139998819  12.254716475654122  72.06180174005264  58.898092618936204  -62.26821972596071  20.88898812076369  120.000000
9.5367  0.000000  0.000000  0.000000  -36.036812856089234  4.706396951601801  -13.713616064897002  44.831303321220894  17.777778210555514  12.687277406168121  71.47515414976144  63.3704683150227  -61.72368874777421  20.345968297659578  120.000000
9.59415  0.000000  0.000000  0.000000  -36.637109291895115  4.946310172014031  -12.323290110781087  46.04058496230647  17.72102680862146  12.868093521324338  70.86098347233923  67.66032052991287  -60.90746794082719  19.80392145862946  120.000000
9.6516  0.000000  0.000000  0.000000  -37.20308150070199  5.062152229918767  -10.728855848997489  47.238633193089335  17.398981405595293  12.79708245362359  70.21709176093123  71.69757825948923  -59.85894490222599  19.303697798768653  120.000000
9.70905  0.000000  0.000000  0.000000  -37.713405510237024  5.067306975188305  -9.05123841379537  48.37127464408276  16.828309089401806  12.506020950756112  69.55562865496094  75.37595807293391  -58.64239647560934  18.874987601921315  120.000000
9.7665  0.000000  0.000000  0.000000  -38.13382200981259  4.998117456387426  -7.400012387950225  49.38964133986372  16.065145814131096  12.051622338932674  68.90024763903106  78.56538104220157  -57.341799830526824  18.537364341797513  120.000000
9.82395  0.000000  0.000000  0.000000  -38.434895988148064  4.900811533671754  -5.8643014726852  50.25437666451895  15.181144835088451  11.502191684740891  68.27637551967315  81.131843664377  -56.04905651623328  18.302583185364107  120.000000
9.8814  0.000000  0.000000  0.000000  -38.604971698976755  4.809237653134476  -4.520927656595867  50.936491594864115  14.24364719160007  10.928183957589969  67.70391878139966  82.95956102009237  -54.85219308451505  18.174022095368745  120.000000
9.93885  0.000000  0.000000  0.000000  -38.6474156136985  4.733841826741399  -3.440206033411744  51.41974095444085  13.309382534559083  10.391332614135173  67.19678556010571  83.97039309314813  -53.82744621662369  18.14373501682316  120.000000
9.9963  0.000000  0.000000  0.000000  -38.57479805393173  4.668661584391077  -2.692186689794123  51.703736419405665  12.424847295973242  9.935045718673056  66.76310631060302  84.14056616273682  -53.03547830492262  18.190167328461644  120.000000
10.05375  0.000000  0.000000  0.000000  -38.40355595542495  4.608005304876489  -2.3355459054744205  51.80237940964089  11.636412142251363  9.590693814664505  66.39992366002438  83.47785239883588  -52.519215342519985  18.283951397115032  120.000000
10.1112  0.000000  0.000000  0.000000  -38.15039594188573  4.553680683144735  -2.401494124702201  51.733129182346765  11.00298241429182  9.390023904365826  66.08719443560076  81.99044498116527  -52.2935112745237  18.397310060577706  120.000000
10.16865  0.000000  0.000000  0.000000  -37.83083288323082  4.507326315792174  -2.899030214338896  51.505012987199  10.590311063509883  9.353665276539916  65.80128635450572  79.71617580123502  -52.32196714539605  18.503550604592775  120.000000
10.2261  0.000000  0.000000  0.000000  -37.45585283422563  4.457346842517839  -3.818764979227258  51.11565762075195  10.457456988491762  9.479709984952573  65.53315008027913  76.74441106163158  -52.50766179502272  18.579829603141647  120.000000
10.28355  0.000000  0.000000  0.000000  -37.03553690517471  4.378064564804888  -5.1262141101261705  50.55974593421301  10.639152793710316  9.749331682380193  65.28872751783975  73.20456279353833  -52.7165308667597  18.610859563699368  120.000000
10.341000000000001  0.000000  0.000000  0.000000  -36.58296311864288  4.242756146709699  -6.760372446271935  49.839527381336474  11.134643821336706  10.135104055749183  65.075196608397  69.2537556394186  -52.812518870396445  18.596530341555574  120.000000
10.39845  0.000000  0.000000  0.000000  -36.11085520938286  4.036109001046151  -8.634789341379792  48.97100664525091  11.907225128778252  10.611102134415322  64.89113274131587  65.05267764171519  -52.68740654652069  18.56374055731828  120.000000
10.4559  0.000000  0.000000  0.000000  -35.63603178075392  3.7640576132666395  -10.647693513191387  47.97724897018529  12.890600740301737  11.155144588098272  64.7257185796016  60.73173516770445  -52.2749347732871  18.573540763068845  120.000000
10.51335  0.000000  0.000000  0.000000  -35.181477505315954  3.4504496774067754  -12.702633704232037  46.88143581890846  14.005357639758142  11.743795773038684  64.56061150994827  56.369796193739035  -51.54671809810678  18.708846486964106  120.000000
10.5708  0.000000  0.000000  0.000000  -34.769942866881635  3.123345806211014  -14.71798290137402  45.708706097489795  15.174535506537454  12.352868938294163  64.37484496989285  52.00335451817416  -50.503059096956015  19.043324573419163  120.000000
10.62825  0.000000  0.000000  0.000000  -34.422421264978475  2.8042548375900878  -16.625454648156257  44.48985450827549  16.335171031030214  12.958993298677365  64.14211164000108  47.65002989232731  -49.15764704103111  19.608566594460864  120.000000
